<svg xmlns="http://www.w3.org/2000/svg" width="21.154" height="18.626" viewBox="0 0 21.154 18.626"><g transform="translate(0.51 0.5)"><path d="M10.072,2.25C4.509,2.25,0,5.913,0,10.433a7.263,7.263,0,0,0,2.243,5.142A10.009,10.009,0,0,1,.087,19.345a.313.313,0,0,0-.059.342.308.308,0,0,0,.287.189,9,9,0,0,0,5.532-2.022,12,12,0,0,0,4.225.763c5.563,0,10.072-3.663,10.072-8.183S15.635,2.25,10.072,2.25ZM5.036,11.692a1.259,1.259,0,1,1,1.259-1.259A1.258,1.258,0,0,1,5.036,11.692Zm5.036,0a1.259,1.259,0,1,1,1.259-1.259A1.258,1.258,0,0,1,10.072,11.692Zm5.036,0a1.259,1.259,0,1,1,1.259-1.259A1.258,1.258,0,0,1,15.108,11.692Z" transform="translate(0 -2.25)" fill="none" stroke="#fff" stroke-width="1"/></g></svg>