<svg xmlns="http://www.w3.org/2000/svg" width="403" height="65" viewBox="0 0 403 65">
  <path id="Sustracción_4" data-name="Sustracción 4" d="M374,66H11A20,20,0,0,1-9,46V21A20,20,0,0,1,11,1H387a7.008,7.008,0,0,1,7,7V46a20,20,0,0,1-20,20ZM29,38.667a.449.449,0,0,0-.346.162l-3.1,3.641a1.867,1.867,0,0,0,.014,2.425l3.157,3.616a.449.449,0,0,0,.341.157.474.474,0,0,0,.334-.139.445.445,0,0,0,.129-.324l-.01-1.371,6.26-.047A2.165,2.165,0,0,0,37.644,45.7L40.023,41.5a2.162,2.162,0,0,0-.016-2.159l-3.4-5.792a1.071,1.071,0,0,0-1.466-.381l-3.616,2.124a1.074,1.074,0,0,0-.382,1.467l2.182,3.711-3.847.029-.011-1.375A.457.457,0,0,0,29,38.667ZM335.01,38l-3.36,3.361c1.8,1.849,4.062,2.719,7.35,2.82v3.24h3.78V44.03c3.96-.622,6.42-3.139,6.42-6.57a6.2,6.2,0,0,0-1.59-4.68,7.238,7.238,0,0,0-4.2-1.769l-1.23-.18V27.08a5.528,5.528,0,0,1,3.39,1.23l3.3-3.3a8.834,8.834,0,0,0-6.089-2.52V19.82H339V22.55c-3.905.5-6.331,3.05-6.331,6.659a5.932,5.932,0,0,0,1.471,4.29,7.023,7.023,0,0,0,4.289,1.89l1.17.15V39.5C338.423,39.479,336.264,39.254,335.01,38ZM15.5,31.549a1.865,1.865,0,0,0-.339.031l-4.72.871a.459.459,0,0,0-.148.848l1.184.69L8.32,39.4a2.163,2.163,0,0,0-.009,2.159L10.7,45.743a2.166,2.166,0,0,0,1.867,1.089l6.717.026h.005a1.072,1.072,0,0,0,1.07-1.065l.018-4.195a1.073,1.073,0,0,0-1.066-1.076l-4.3-.017,1.938-3.324,1.189.693a.453.453,0,0,0,.231.064.465.465,0,0,0,.376-.2.451.451,0,0,0,.058-.413L17.25,32.8A1.855,1.855,0,0,0,15.5,31.549Zm298-8.909V36.5c0,4.45,3.394,7.681,8.07,7.681,4.711,0,8.13-3.23,8.13-7.681V22.64h-5.25V36.38a2.79,2.79,0,0,1-2.88,3.12c-1.766,0-2.82-1.166-2.82-3.12V22.64Zm-16.8-.18c-3.309,0-6.871,2.084-6.871,6.661v8.4c0,4.576,3.561,6.66,6.871,6.66s6.87-2.084,6.87-6.66v-8.4C303.57,24.544,300.009,22.46,296.7,22.46ZM273.18,37.49a6.9,6.9,0,0,0,1.86,4.83,7.261,7.261,0,0,0,5.07,1.86,6.794,6.794,0,0,0,4.95-1.83c1.674-1.674,1.98-3.213,1.98-5.64a7.3,7.3,0,0,0-1.98-5.67,5.767,5.767,0,0,0-4.14-1.5,5.228,5.228,0,0,0-2.88.84v-3.3h8.55V22.64H273.57V35.21h4.53a1.944,1.944,0,0,1,2.01-1.53c1.391,0,2.011.935,2.011,3.03a3.459,3.459,0,0,1-.63,2.489,1.743,1.743,0,0,1-1.381.54c-1.191,0-1.848-.736-2.01-2.25Zm-51.86-9.81a6.855,6.855,0,0,0-5.19,2.07c-1.323,1.441-1.769,3-1.769,6.18,0,3.219.43,4.721,1.769,6.18a7.542,7.542,0,0,0,10.381,0c1.339-1.459,1.769-2.961,1.769-6.18,0-3.18-.447-4.739-1.769-6.18A6.855,6.855,0,0,0,221.32,27.68ZM192.79,38.66l-3.18,3.181c2.163,2.164,4.459,2.34,7.02,2.34,3.379,0,6.989-1.434,6.989-5.46,0-2.868-1.726-4.615-4.86-4.919l-2.489-.24c-.726-.081-1.05-.358-1.05-.9,0-.322.332-.931,1.59-.931a4.847,4.847,0,0,1,3.42.96l3.029-3.03c-1.406-1.406-3.248-1.98-6.359-1.98-3.092,0-6.421,1.671-6.421,5.341,0,2.844,1.531,4.375,4.68,4.68l2.49.239c.776.073,1.17.417,1.17,1.021,0,.831-1.373,1.05-2.1,1.05A5.258,5.258,0,0,1,192.79,38.66ZM166.96,27.68c-4.459,0-7.23,3.161-7.23,8.25,0,3.126.841,5.392,2.5,6.735a7.943,7.943,0,0,0,5.179,1.515,7.841,7.841,0,0,0,6.27-2.551l-2.94-2.939a4.024,4.024,0,0,1-3.33,1.35,2.575,2.575,0,0,1-2.85-2.52h9.661V35.48C174.22,30.741,171.37,27.68,166.96,27.68Zm-71.67,0a6.855,6.855,0,0,0-5.19,2.07c-1.324,1.442-1.77,3-1.77,6.18,0,3.219.43,4.72,1.77,6.18a7.541,7.541,0,0,0,10.38,0c1.34-1.46,1.77-2.962,1.77-6.18,0-3.179-.447-4.738-1.77-6.18A6.85,6.85,0,0,0,95.29,27.68Zm-13.65,0c-2.712,0-7.26,1.072-7.26,8.25s4.549,8.25,7.26,8.25a7.223,7.223,0,0,0,5.31-2.07l-3.33-3.33a2.623,2.623,0,0,1-1.98.959,1.992,1.992,0,0,1-1.53-.629,4.572,4.572,0,0,1-.81-3.181,4.57,4.57,0,0,1,.81-3.18,1.99,1.99,0,0,1,1.53-.63,2.619,2.619,0,0,1,1.98.96l3.33-3.331A7.223,7.223,0,0,0,81.64,27.68Zm271.01-5.04V44h7.92a7.515,7.515,0,0,0,6.93-3.6c1.05-1.71,1.05-3.393,1.05-7.08s0-5.37-1.05-7.08a7.515,7.515,0,0,0-6.93-3.6ZM262.26,27.89V44h4.92V22.64h-4.92L257.7,26.6v5.25l4.559-3.959Zm-23.93,4.23a2.061,2.061,0,0,1,1.237.413,2.161,2.161,0,0,1,.743,1.808V44h4.92V33.68a5.893,5.893,0,0,0-1.62-4.62,5,5,0,0,0-3.631-1.381,5.466,5.466,0,0,0-3.749,1.5V27.86h-4.8V44h4.92V34.34a2.161,2.161,0,0,1,.743-1.808A2.061,2.061,0,0,1,238.33,32.12ZM206.29,28.49V44h4.92V28.49Zm-29.07-.629V44h4.92V34.34a1.978,1.978,0,0,1,1.98-2.22,2.282,2.282,0,0,1,1.769.84l3.721-3.78a4.782,4.782,0,0,0-3.78-1.5,5.616,5.616,0,0,0-3.811,1.5V27.86Zm-33.96,0L149.2,44h3.749l5.94-16.14h-5.16l-2.64,8.369-2.67-8.369Zm-8.61,4.26a2.061,2.061,0,0,1,1.237.413,2.161,2.161,0,0,1,.743,1.808V44h4.92V33.68a5.893,5.893,0,0,0-1.62-4.62A5,5,0,0,0,136.3,27.68a5.466,5.466,0,0,0-3.749,1.5V27.86h-4.8V44h4.92V34.34a2.161,2.161,0,0,1,.743-1.808A2.061,2.061,0,0,1,134.65,32.12ZM118.48,22.64V44h5.251V22.64Zm-61.32,0V44H71.68V39.32H62.41V35.57h7.92V30.89H62.41V27.32h9.27V22.64Zm47.85,10.2v4.62h9.84V32.84ZM24.375,25.631h0l1.923,3.33-1.192.688a.459.459,0,0,0,.143.848l4.7.9a1.878,1.878,0,0,0,.351.034,1.858,1.858,0,0,0,1.751-1.244l1.586-4.531a.45.45,0,0,0-.056-.414.464.464,0,0,0-.376-.2.455.455,0,0,0-.23.063l-1.187.687-3.131-5.423a2.164,2.164,0,0,0-1.87-1.079H21.966a2.164,2.164,0,0,0-1.87,1.079l-3.361,5.819a1.076,1.076,0,0,0,.392,1.464l3.632,2.1a1.07,1.07,0,0,0,1.463-.391l2.15-3.728ZM206.29,22.46v3.75h4.92V22.46Zm15-2.159-1.95,5.4h3.51l3.03-5.4ZM296.7,39.74a1.922,1.922,0,0,1-1.95-2.19V29.12a1.966,1.966,0,1,1,3.9,0V37.55A1.922,1.922,0,0,1,296.7,39.74Zm-75.38,0A1.754,1.754,0,0,1,220,39.29c-.605-.606-.72-1.649-.72-3.361s.115-2.754.72-3.36a2.162,2.162,0,0,1,2.641,0c.605.605.72,1.648.72,3.36s-.115,2.754-.72,3.361A1.754,1.754,0,0,1,221.32,39.74Zm-126.03,0a1.752,1.752,0,0,1-1.32-.449c-.605-.606-.72-1.649-.72-3.361s.115-2.754.72-3.36a2.161,2.161,0,0,1,2.64,0c.605.605.72,1.648.72,3.36s-.115,2.754-.72,3.361A1.75,1.75,0,0,1,95.29,39.74Zm246.89-.329h0V35.75a2.3,2.3,0,0,1,1.44.571,1.719,1.719,0,0,1,.42,1.26c0,.978-.626,1.594-1.859,1.829Zm18.03-.09H357.9v-12h2.309a2.755,2.755,0,0,1,2.52,1.2c.414.591.571,1.159.571,4.8s-.156,4.209-.571,4.8A2.755,2.755,0,0,1,360.21,39.32ZM169.36,34.25h-4.8a2.879,2.879,0,0,1,.27-1.26,2.431,2.431,0,0,1,4.261,0,2.88,2.88,0,0,1,.27,1.259ZM339.6,30.65h0a2.384,2.384,0,0,1-1.439-.629,1.417,1.417,0,0,1-.419-.99A1.99,1.99,0,0,1,339.6,27.11v3.539Z" transform="translate(9 -1)" fill="#fff"/>
</svg>
