<svg id="education" xmlns="http://www.w3.org/2000/svg" width="57.834" height="70.332" viewBox="0 0 57.834 70.332">
  <path id="Trazado_6451" data-name="Trazado 6451" d="M58.328,15.6c0-.017,0-.034,0-.052,0-.034,0-.067,0-.1-.055-3.044-.441-4.216-3.019-7.018l-4.5-4.9c-.257-.279-.488-.536-.7-.771C48.219.664,47.464,0,44.156,0H5A4.511,4.511,0,0,0,.5,4.507V32.641a1.038,1.038,0,1,0,2.076,0V4.507A2.432,2.432,0,0,1,5,2.076H43.117l0,10a4.51,4.51,0,0,0,4.5,4.509h8.64V65.825a2.432,2.432,0,0,1-2.428,2.431H5a2.432,2.432,0,0,1-2.428-2.431V37.4A1.038,1.038,0,1,0,.5,37.4v28.43A4.511,4.511,0,0,0,5,70.332H53.83a4.51,4.51,0,0,0,4.5-4.507V16.754c0-.413,0-.794-.006-1.152Zm-10.71-1.089a2.435,2.435,0,0,1-2.428-2.43l0-9.982c1.614.1,2,.533,3.368,2.05.217.241.453.5.716.789l4.5,4.9c1.861,2.023,2.326,2.844,2.442,4.675Zm0,0" transform="translate(-0.5 0)" fill="#fff"/>
  <path id="Trazado_6452" data-name="Trazado 6452" d="M182.909,98.143a4.042,4.042,0,0,0-1.961-.463,3.945,3.945,0,0,0-2.1.549,3.823,3.823,0,0,0-1.366,1.4,3.408,3.408,0,0,0-.471,1.67,1.21,1.21,0,0,0,.323.8,1.021,1.021,0,0,0,.809.382c.631,0,.911-.444.985-1.043a4.028,4.028,0,0,1,.731-1.3,1.568,1.568,0,0,1,2.113,0,1.414,1.414,0,0,1,.4,1.016,1.254,1.254,0,0,1-.128.569,2.2,2.2,0,0,1-.334.494c-.21.238-.447.467-.677.693a12.213,12.213,0,0,0-.867.927,3.35,3.35,0,0,0-.533.938,3.561,3.561,0,0,0-.2,1.258,1.339,1.339,0,0,0,.3.942.994.994,0,0,0,.755.327,1.007,1.007,0,0,0,1.027-.985c.035-.183.074-.373.117-.56a1.613,1.613,0,0,1,.109-.292,1.521,1.521,0,0,1,.206-.331,4.174,4.174,0,0,1,.393-.436c.424-.428.852-.86,1.26-1.3a3.883,3.883,0,0,0,.626-.953,2.989,2.989,0,0,0,.273-1.3,3.385,3.385,0,0,0-.467-1.732,3.328,3.328,0,0,0-1.323-1.262Zm0,0" transform="translate(-152.768 -84.262)" fill="#fff"/>
  <path id="Trazado_6453" data-name="Trazado 6453" d="M196.355,173.488a1.185,1.185,0,0,0-.907.4,1.533,1.533,0,0,0,.016,2.005,1.252,1.252,0,0,0,.891.37,1.2,1.2,0,0,0,.871-.378,1.386,1.386,0,0,0,.377-1.02,1.428,1.428,0,0,0-.354-.977A1.166,1.166,0,0,0,196.355,173.488Zm0,0" transform="translate(-168.353 -149.656)" fill="#fff"/>
  <path id="Trazado_6454" data-name="Trazado 6454" d="M59.66,267.618v3.714a1.647,1.647,0,0,0,1.645,1.646h6.38a1.647,1.647,0,0,0,1.645-1.646v-3.714a1.647,1.647,0,0,0-1.645-1.645h-6.38A1.647,1.647,0,0,0,59.66,267.618Zm2.076.431h5.518V270.9H61.736Zm0,0" transform="translate(-51.534 -229.436)" fill="#fff"/>
  <path id="Trazado_6455" data-name="Trazado 6455" d="M59.66,343.485a1.649,1.649,0,0,0,1.645,1.649h6.38a1.649,1.649,0,0,0,1.645-1.649v-3.71a1.649,1.649,0,0,0-1.645-1.65h-6.38a1.649,1.649,0,0,0-1.645,1.65Zm2.076-3.283h5.518v2.856H61.736Zm0,0" transform="translate(-51.534 -291.678)" fill="#fff"/>
  <path id="Trazado_6456" data-name="Trazado 6456" d="M59.66,415.664a1.649,1.649,0,0,0,1.645,1.649h6.38a1.649,1.649,0,0,0,1.645-1.649v-3.71a1.647,1.647,0,0,0-1.645-1.645h-6.38a1.647,1.647,0,0,0-1.645,1.645Zm2.076-3.279h5.518v2.852H61.736Zm0,0" transform="translate(-51.534 -353.946)" fill="#fff"/>
  <path id="Trazado_6457" data-name="Trazado 6457" d="M183.581,284.789H156.249a1.038,1.038,0,1,0,0,2.076h27.332a1.038,1.038,0,1,0,0-2.076Zm0,0" transform="translate(-133.958 -245.668)" fill="#fff"/>
  <path id="Trazado_6458" data-name="Trazado 6458" d="M284.624,356.063H273.381a1.038,1.038,0,0,0,0,2.077h11.243a1.038,1.038,0,0,0,0-2.077Zm0,0" transform="translate(-235.001 -307.151)" fill="#fff"/>
  <path id="Trazado_6459" data-name="Trazado 6459" d="M156.25,358.139h11.336a1.038,1.038,0,0,0,0-2.077H156.25a1.038,1.038,0,0,0,0,2.077Zm0,0" transform="translate(-133.959 -307.151)" fill="#fff"/>
  <path id="Trazado_6460" data-name="Trazado 6460" d="M156.25,430.322h27.332a1.038,1.038,0,1,0,0-2.076H156.25a1.038,1.038,0,1,0,0,2.076Zm0,0" transform="translate(-133.959 -369.419)" fill="#fff"/>
  <path id="Trazado_6461" data-name="Trazado 6461" d="M124.841,52.742A12.77,12.77,0,1,0,137.6,65.51,12.778,12.778,0,0,0,124.841,52.742Zm0,23.463a10.693,10.693,0,1,1,10.687-10.7A10.7,10.7,0,0,1,124.841,76.205Zm0,0" transform="translate(-96.754 -45.497)" fill="#fff"/>
</svg>
