<svg xmlns="http://www.w3.org/2000/svg" width="32.279" height="29.377" viewBox="0 0 32.279 29.377">
  <g id="Grupo_303" data-name="Grupo 303" transform="translate(-152 -1945)">
    <g id="symbol" transform="translate(152 1945)">
      <path id="Trazado_98" data-name="Trazado 98" d="M149.24,35.124a1.856,1.856,0,0,0,2.1-1.21l1.586-4.53a.459.459,0,0,0-.662-.549l-1.187.686L147.947,24.1a2.16,2.16,0,0,0-1.871-1.08h-4.818a2.16,2.16,0,0,0-1.871,1.08l-3.36,5.82a1.071,1.071,0,0,0,.392,1.463l3.632,2.1a1.071,1.071,0,0,0,1.463-.392l2.152-3.729,1.924,3.332-1.191.688a.459.459,0,0,0,.143.848Z" transform="translate(-127.316 -23.018)" fill="#303030" />
      <path id="Trazado_99" data-name="Trazado 99" d="M285.92,249.252a2.16,2.16,0,0,0-.017-2.16l-3.4-5.791a1.071,1.071,0,0,0-1.466-.381l-3.617,2.124a1.071,1.071,0,0,0-.381,1.466l2.181,3.712-3.848.028-.01-1.376a.459.459,0,0,0-.808-.294l-3.1,3.642a1.856,1.856,0,0,0,.015,2.425l3.157,3.615a.459.459,0,0,0,.8-.305l-.01-1.371,6.261-.046a2.16,2.16,0,0,0,1.863-1.094Z" transform="translate(-253.922 -227.044)" fill="#fff"/>
      <path id="Trazado_100" data-name="Trazado 100" d="M11.289,226.4l-4.305-.017,1.938-3.324,1.188.693a.459.459,0,0,0,.665-.545l-1.55-4.525a1.856,1.856,0,0,0-2.093-1.224l-4.72.871a.459.459,0,0,0-.148.847l1.184.691L.294,225.276a2.16,2.16,0,0,0-.009,2.161l2.393,4.185a2.16,2.16,0,0,0,1.866,1.088l6.717.027a1.071,1.071,0,0,0,1.076-1.066l.018-4.194A1.071,1.071,0,0,0,11.289,226.4Z" transform="translate(0 -205.17)" fill="#fff"/>
    </g>
  </g>
</svg>
