<svg xmlns="http://www.w3.org/2000/svg" width="16.661" height="14.695" viewBox="0 0 16.661 14.695">
  <path id="Icon_awesome-comment-dots" data-name="Icon awesome-comment-dots" d="M7.826,2.25C3.5,2.25,0,5.1,0,8.609a5.644,5.644,0,0,0,1.742,4A7.777,7.777,0,0,1,.067,15.533a.243.243,0,0,0-.046.266.239.239,0,0,0,.223.147,6.991,6.991,0,0,0,4.3-1.571,9.323,9.323,0,0,0,3.283.593c4.323,0,7.826-2.846,7.826-6.359S12.148,2.25,7.826,2.25ZM3.913,9.587a.978.978,0,1,1,.978-.978A.977.977,0,0,1,3.913,9.587Zm3.913,0A.978.978,0,1,1,8.8,8.609.977.977,0,0,1,7.826,9.587Zm3.913,0a.978.978,0,1,1,.978-.978A.977.977,0,0,1,11.739,9.587Z" transform="translate(0.51 -1.75)" fill="none" stroke="#636466" stroke-width="1"/>
</svg>
