<svg id="business_1_" data-name="business (1)" xmlns="http://www.w3.org/2000/svg" width="54.322" height="54.339" viewBox="0 0 54.322 54.339">
  <path id="Trazado_6506" data-name="Trazado 6506" d="M220.536,332.006a1.062,1.062,0,1,0-1.5,0A1.063,1.063,0,0,0,220.536,332.006Zm0,0" transform="translate(-195.564 -295.15)" fill="#fff"/>
  <path id="Trazado_6507" data-name="Trazado 6507" d="M188.449,11.671A11.671,11.671,0,1,0,200.12,0,11.685,11.685,0,0,0,188.449,11.671Zm21.22,0a9.549,9.549,0,1,1-9.549-9.549A9.56,9.56,0,0,1,209.669,11.671Zm0,0" transform="translate(-168.502)" fill="#fff"/>
  <path id="Trazado_6508" data-name="Trazado 6508" d="M12.722,243.811a1.061,1.061,0,0,0,1.5.009l5.144-5.068a3.206,3.206,0,0,0,.755-3.293l1.107-1.067a3.164,3.164,0,0,1,2.209-.893H37.54a9.5,9.5,0,0,0,6.661-2.706c.074-.072-.56.675,9.623-11.5a4.244,4.244,0,0,0-6.458-5.508L41.1,220.224a4.264,4.264,0,0,0-3.3-1.58H25.974a13.688,13.688,0,0,0-5.313-1.061A13.127,13.127,0,0,0,8.7,224.368a3.169,3.169,0,0,0-2.838.879L.811,230.31a1.061,1.061,0,0,0,0,1.5Zm7.938-24.1a11.582,11.582,0,0,1,4.671.972,1.059,1.059,0,0,0,.425.089H37.805a2.122,2.122,0,1,1,0,4.244H29.149a1.061,1.061,0,0,0,0,2.122h8.657a4.238,4.238,0,0,0,4.207-4.8c6.057-6.226,6.911-7.1,6.947-7.144a2.122,2.122,0,1,1,3.24,2.742l-9.517,11.377a7.388,7.388,0,0,1-5.143,2.068H23.435a5.275,5.275,0,0,0-3.683,1.487l-.9.87-8.312-8.312a10.955,10.955,0,0,1,10.122-5.717Zm-13.3,7.041a1.058,1.058,0,0,1,1.314-.149c.184.112-.344-.368,9.19,9.152a1.063,1.063,0,0,1,.006,1.5l-4.385,4.32-10.425-10.5Zm0,0" transform="translate(-0.501 -189.785)" fill="#fff"/>
  <path id="Trazado_6509" data-name="Trazado 6509" d="M267.977,41.05v1.243a3.183,3.183,0,0,0,1.061,6.184,1.061,1.061,0,1,1,0,2.122,1.919,1.919,0,0,1-1.378-.8,1.061,1.061,0,0,0-1.624,1.366,4.4,4.4,0,0,0,1.941,1.382v1.238a1.061,1.061,0,0,0,2.122,0V52.538a3.183,3.183,0,0,0-1.061-6.184,1.061,1.061,0,0,1,0-2.122,1.7,1.7,0,0,1,1.148.555,1.061,1.061,0,1,0,1.476-1.525,4.1,4.1,0,0,0-1.563-.977V41.05a1.061,1.061,0,1,0-2.122,0Zm0,0" transform="translate(-237.632 -35.744)" fill="#fff"/>
</svg>
