<svg xmlns="http://www.w3.org/2000/svg" width="17.427" height="16.354" viewBox="0 0 17.427 16.354">
  <g id="interface_2_" data-name="interface (2)" transform="translate(0.001 0)">
    <path id="Trazado_121" data-name="Trazado 121" d="M14.072,4.388a5.452,5.452,0,0,0-10.694,0,3.817,3.817,0,0,0,.44,7.608H6.544a.545.545,0,1,0,0-1.09H3.818A2.726,2.726,0,1,1,3.851,5.45a.545.545,0,0,0,.542-.485,4.362,4.362,0,0,1,8.666,0,.578.578,0,0,0,.574.485,2.726,2.726,0,1,1,0,5.452H10.906a.545.545,0,1,0,0,1.09h2.726a3.817,3.817,0,0,0,.44-7.6Zm0,0" transform="translate(0 0)" fill="#fff"/>
    <path id="Trazado_122" data-name="Trazado 122" d="M177.016,214.2l-1.382,1.383v-6.862a.545.545,0,1,0-1.09,0v6.862l-1.382-1.383a.545.545,0,1,0-.784.757l.013.013,2.312,2.313a.547.547,0,0,0,.176.118.539.539,0,0,0,.42,0,.545.545,0,0,0,.176-.118l2.312-2.313a.545.545,0,1,0-.758-.784Zm0,0" transform="translate(-166.363 -201.087)" fill="#fff"/>
  </g>
</svg>
