<svg id="Icon_awesome-info-circle" data-name="Icon awesome-info-circle" xmlns="http://www.w3.org/2000/svg" width="20.614" height="20.614" viewBox="0 0 20.614 20.614">
  <path id="Icon_awesome-info-circle-2" data-name="Icon awesome-info-circle" d="M10.869.563A10.307,10.307,0,1,0,21.176,10.869,10.308,10.308,0,0,0,10.869.563Zm0,4.572A1.746,1.746,0,1,1,9.124,6.88,1.746,1.746,0,0,1,10.869,5.134ZM13.2,15.69a.5.5,0,0,1-.5.5H9.041a.5.5,0,0,1-.5-.5v-1a.5.5,0,0,1,.5-.5h.5v-2.66h-.5a.5.5,0,0,1-.5-.5v-1a.5.5,0,0,1,.5-.5H11.7a.5.5,0,0,1,.5.5v4.156h.5a.5.5,0,0,1,.5.5Z" transform="translate(-0.563 -0.563)" fill="#f68b1f"/>
</svg>
