<svg xmlns="http://www.w3.org/2000/svg" width="30.252" height="30.863" viewBox="0 0 30.252 30.863">
  <g id="Grupo_47" data-name="Grupo 47" transform="translate(-20.876 -0.363)">
    <rect id="Rectángulo_1" data-name="Rectángulo 1" width="30.252" height="30.863" rx="15" transform="translate(20.876 0.363)" fill="#80c342"/>
    <path id="Icon_awesome-check" data-name="Icon awesome-check" d="M5.966,17.418.257,11.71a.878.878,0,0,1,0-1.242L1.5,9.226a.878.878,0,0,1,1.242,0l3.845,3.845,8.237-8.237a.878.878,0,0,1,1.242,0l1.242,1.242a.878.878,0,0,1,0,1.242l-10.1,10.1A.878.878,0,0,1,5.966,17.418Z" transform="translate(27.113 5.101)" fill="#fff"/>
  </g>
</svg>
