<svg xmlns="http://www.w3.org/2000/svg" width="28.72" height="41.786" viewBox="0 0 28.72 41.786">
  <path id="Icon_awesome-question" data-name="Icon awesome-question" d="M16.2,0C9.684,0,5.465,2.669,2.152,7.429a1.961,1.961,0,0,0,.423,2.683L6.1,12.781a1.959,1.959,0,0,0,2.714-.339c2.044-2.561,3.561-4.036,6.754-4.036,2.511,0,5.616,1.616,5.616,4.051,0,1.841-1.519,2.786-4,4.176-2.891,1.621-6.717,3.638-6.717,8.684v.8a1.959,1.959,0,0,0,1.959,1.959h5.915A1.959,1.959,0,0,0,20.3,26.116v-.471c0-3.5,10.224-3.644,10.224-13.109C30.52,5.407,23.126,0,16.2,0ZM15.38,30.479a5.653,5.653,0,1,0,5.653,5.653A5.66,5.66,0,0,0,15.38,30.479Z" transform="translate(-1.8)" fill="#00b49d"/>
</svg>
