<svg xmlns="http://www.w3.org/2000/svg" width="22.743" height="19.989" viewBox="0 0 22.743 19.989">
  <path id="business" d="M22.081,2.665H16.036V2a2,2,0,0,0-2-2H8.707a2,2,0,0,0-2,2v.666H.667A.668.668,0,0,0,0,3.331V17.99a2,2,0,0,0,2,2H20.744a2,2,0,0,0,2-2V3.343a.647.647,0,0,0-.662-.678ZM8.04,2a.667.667,0,0,1,.666-.666h5.33A.667.667,0,0,1,14.7,2v.666H8.04ZM21.153,4l-2.069,6.207a.665.665,0,0,1-.632.456H14.7V9.994a.666.666,0,0,0-.666-.666H8.707a.666.666,0,0,0-.666.666v.666H4.292a.665.665,0,0,1-.632-.456L1.591,4Zm-7.782,6.663v1.333h-4V10.661Zm8.04,7.329a.667.667,0,0,1-.666.666H2a.667.667,0,0,1-.666-.666V7.437L2.4,10.627a2,2,0,0,0,1.9,1.367H8.04v.666a.666.666,0,0,0,.666.666h5.33a.666.666,0,0,0,.666-.666v-.666h3.748a2,2,0,0,0,1.9-1.367l1.063-3.189Zm0,0" transform="translate(0)" fill="#0097d6"/>
</svg>
