<svg xmlns="http://www.w3.org/2000/svg" width="80.032" height="75.107" viewBox="0 0 80.032 75.107">
  <g id="interface_2_" data-name="interface (2)" transform="translate(0.001 0)">
    <path id="Trazado_121" data-name="Trazado 121" d="M64.632,20.15a25.04,25.04,0,0,0-49.11-.015,17.528,17.528,0,0,0,2.019,34.94H30.06a2.5,2.5,0,0,0,0-5.008H17.54a12.52,12.52,0,1,1,.148-25.04A2.5,2.5,0,0,0,20.177,22.8a20.031,20.031,0,0,1,39.8,0,2.654,2.654,0,0,0,2.637,2.229,12.52,12.52,0,1,1,0,25.04H50.091a2.5,2.5,0,0,0,0,5.008h12.52A17.528,17.528,0,0,0,64.632,20.15Zm0,0" transform="translate(0 0)" fill="#fff"/>
    <path id="Trazado_122" data-name="Trazado 122" d="M194.232,235.841l-6.348,6.35V210.677a2.5,2.5,0,1,0-5.007,0v31.514l-6.348-6.35a2.5,2.5,0,1,0-3.6,3.478l.062.062L183.607,250a2.512,2.512,0,0,0,.809.541,2.474,2.474,0,0,0,1.928,0,2.5,2.5,0,0,0,.808-.541l10.619-10.622a2.5,2.5,0,0,0-3.479-3.6C194.273,235.8,194.252,235.82,194.232,235.841Zm0,0" transform="translate(-145.304 -175.633)" fill="#fff"/>
  </g>
</svg>
