<svg xmlns="http://www.w3.org/2000/svg" width="72.408" height="80.594" viewBox="0 0 72.408 80.594">
  <g id="professions-and-jobs" transform="translate(-26)">
    <g id="Grupo_104" data-name="Grupo 104" transform="translate(77.945 62.334)">
      <g id="Grupo_103" data-name="Grupo 103">
        <path id="Trazado_36" data-name="Trazado 36" d="M357.574,396a1.574,1.574,0,1,0,1.574,1.574A1.575,1.575,0,0,0,357.574,396Z" transform="translate(-356 -396)" fill="#fff"/>
      </g>
    </g>
    <g id="Grupo_106" data-name="Grupo 106" transform="translate(26)">
      <g id="Grupo_105" data-name="Grupo 105" transform="translate(0)">
        <path id="Trazado_37" data-name="Trazado 37" d="M83.395,57.244l-7.482-2.493-2.686-5.372a17.24,17.24,0,0,0,4.666-9.12l.335-2.008h2.865a4.728,4.728,0,0,0,4.722-4.722V23.611a23.611,23.611,0,1,0-47.223,0v9.917a4.73,4.73,0,0,0,3.148,4.452v1.845a4.728,4.728,0,0,0,4.722,4.722h1.382a17.076,17.076,0,0,0,2.64,4.089c.223.256.455.5.694.746L48.5,54.751l-7.482,2.494C32.314,60.145,26,69.3,26,79.019a1.574,1.574,0,0,0,1.574,1.574h69.26a1.574,1.574,0,0,0,1.574-1.574C98.408,69.3,92.094,60.145,83.395,57.244Zm-.728-23.716A1.576,1.576,0,0,1,81.093,35.1h-2.4c.4-3.1.667-6.4.774-9.646,0-.092.006-.181.008-.271h3.194ZM43.315,35.1a1.576,1.576,0,0,1-1.574-1.574V25.185h3.2q.008.246.017.5c0,.006,0,.011,0,.017h0c.11,3.16.373,6.372.764,9.4h-2.4Zm3.148,6.3a1.576,1.576,0,0,1-1.574-1.574V38.25h1.29l.335,2.008c.064.382.142.762.233,1.14ZM44.892,22.037H41.8a20.464,20.464,0,0,1,40.807,0H79.517A15.943,15.943,0,0,0,63.613,6.3H60.8A15.943,15.943,0,0,0,44.892,22.037ZM60.8,9.445h2.818A12.8,12.8,0,0,1,76.371,22.259c0,.5,0,.927-.012,1.319,0,.005,0,.01,0,.015l-1.969-.281A25.293,25.293,0,0,1,60.169,16.2a1.575,1.575,0,0,0-1.113-.461,14.241,14.241,0,0,0-10.949,5.18A12.8,12.8,0,0,1,60.8,9.445ZM50.011,41.4c-.788-2.621-1.69-10.334-1.889-15.277L50.241,23.3a11.08,11.08,0,0,1,8.193-4.39,28.472,28.472,0,0,0,15.511,7.522l2.317.331c-.155,3.287-.471,6.586-.925,9.621v0c-.144.975-.258,1.6-.548,3.357A13.37,13.37,0,0,1,65.3,50.493a12.385,12.385,0,0,1-13.9-5.947H54.6a4.73,4.73,0,0,0,4.452,3.148H62.2a4.722,4.722,0,1,0,0-9.445H59.056A4.724,4.724,0,0,0,54.6,41.4Zm8.912,12.28a15.788,15.788,0,0,0,5.855.132L62,56.752Zm.909,5.362-4.993,5.28a59.974,59.974,0,0,1-3.524-8.172l1.875-3.75Zm11.118-7.176,2.141,4.283a59.956,59.956,0,0,1-3.525,8.175l-5.344-5.344ZM57.482,42.973A1.574,1.574,0,0,1,59.056,41.4H62.2a1.574,1.574,0,0,1,0,3.148H59.056A1.576,1.576,0,0,1,57.482,42.973ZM29.211,77.445c.624-7.8,5.813-14.886,12.8-17.215l6.626-2.208a63.1,63.1,0,0,0,4.48,9.718l.009.016h0a63.118,63.118,0,0,0,4.309,6.58l1.936,3.109Zm32.993-1.4-2.135-3.427q-.036-.058-.076-.112a60.017,60.017,0,0,1-3.547-5.3l5.614-5.937,5.915,5.915a59.951,59.951,0,0,1-3.559,5.32C64.339,72.605,64.448,72.443,62.2,76.042Zm2.835,1.4,1.936-3.109A63.093,63.093,0,0,0,71.314,67.7l.023-.042,0-.005a63.05,63.05,0,0,0,4.433-9.635L82.4,60.231c6.984,2.329,12.174,9.417,12.8,17.215Z" transform="translate(-26)" fill="#fff"/>
      </g>
    </g>
    <g id="Grupo_108" data-name="Grupo 108" transform="translate(83.476 65.339)">
      <g id="Grupo_107" data-name="Grupo 107">
        <path id="Trazado_38" data-name="Trazado 38" d="M398.129,420.825a15.735,15.735,0,0,0-4.456-5.41,1.574,1.574,0,1,0-1.919,2.5,12.572,12.572,0,0,1,3.559,4.321,1.574,1.574,0,0,0,2.817-1.407Z" transform="translate(-391.139 -415.088)" fill="#fff"/>
      </g>
    </g>
  </g>
</svg>
