<svg xmlns="http://www.w3.org/2000/svg" width="22.242" height="32.361" viewBox="0 0 22.242 32.361">
  <path id="Icon_awesome-question" data-name="Icon awesome-question" d="M12.951,0A12.246,12.246,0,0,0,2.073,5.753,1.518,1.518,0,0,0,2.4,7.831L5.126,9.9a1.517,1.517,0,0,0,2.1-.262c1.583-1.983,2.758-3.125,5.231-3.125,1.944,0,4.349,1.251,4.349,3.137,0,1.425-1.177,2.157-3.1,3.234-2.239,1.255-5.2,2.817-5.2,6.725v.619a1.517,1.517,0,0,0,1.517,1.517h4.58a1.517,1.517,0,0,0,1.517-1.517v-.365c0-2.709,7.917-2.822,7.917-10.152C24.042,4.188,18.315,0,12.951,0Zm-.633,23.6A4.378,4.378,0,1,0,16.7,27.982,4.383,4.383,0,0,0,12.317,23.6Z" transform="translate(-1.8)" fill="#eee"/>
</svg>
