<svg xmlns="http://www.w3.org/2000/svg" width="41.828" height="41.826" viewBox="0 0 41.828 41.826">
  <g id="shapes-and-symbols" transform="translate(0 -0.36)">
    <path id="Trazado_6613" data-name="Trazado 6613" d="M40.756,34.213,7.975,1.432a3.658,3.658,0,0,0-5.175,0L1.073,3.157a3.659,3.659,0,0,0,0,5.175L33.854,41.113a3.659,3.659,0,0,0,5.175,0l1.725-1.725a3.656,3.656,0,0,0,0-5.175Zm0,0" transform="translate(0)" fill="#fff"/>
    <path id="Trazado_6614" data-name="Trazado 6614" d="M33.853,1.434,1.072,34.215a3.659,3.659,0,0,0,0,5.175L2.8,41.115a3.659,3.659,0,0,0,5.175,0L40.756,8.336a3.657,3.657,0,0,0,0-5.175L39.031,1.436a3.659,3.659,0,0,0-5.178,0Zm0,0" transform="translate(0 -0.002)" fill="#fff"/>
  </g>
</svg>
