<svg xmlns="http://www.w3.org/2000/svg" width="231.005" height="102.822" viewBox="0 0 231.005 102.822">
  <g id="Grupo_164" data-name="Grupo 164" transform="translate(-530.866 -205.838)">
    <g id="Grupo_161" data-name="Grupo 161" transform="translate(530.866 205.838)">
      <path id="Trazado_70" data-name="Trazado 70" d="M546.7,237.388c-9.1,0-15.832-6.387-15.832-15.662v-.113c0-8.651,6.162-15.775,14.984-15.775,10.12,0,14.587,8.312,14.587,14.588a3.921,3.921,0,0,1-4.015,4.127H539.4a7.03,7.03,0,0,0,7.407,5.937,9.922,9.922,0,0,0,6.107-2.036,3.211,3.211,0,0,1,2.092-.678,3.285,3.285,0,0,1,3.336,3.392,3.377,3.377,0,0,1-1.131,2.546A15.707,15.707,0,0,1,546.7,237.388Zm5.54-18.206c-.508-3.843-2.771-6.444-6.389-6.444-3.562,0-5.88,2.543-6.559,6.444Z" transform="translate(-530.866 -205.838)" fill="#83b011"/>
      <path id="Trazado_71" data-name="Trazado 71" d="M558.212,221.726v-.113A15.56,15.56,0,0,1,574.1,205.838c4.58,0,7.8,1.245,10.346,3.393a3.81,3.81,0,0,1,1.358,2.94,3.862,3.862,0,0,1-3.9,3.845,4.045,4.045,0,0,1-2.488-.849,8.2,8.2,0,0,0-5.372-1.921c-4.3,0-7.349,3.788-7.349,8.254v.114c0,4.637,3,8.368,7.689,8.368a8.709,8.709,0,0,0,5.654-2.091,3.985,3.985,0,0,1,2.318-.791,3.645,3.645,0,0,1,2.375,6.387,14.909,14.909,0,0,1-10.743,3.9A15.475,15.475,0,0,1,558.212,221.726Z" transform="translate(-525.818 -205.838)" fill="#ef7000"/>
      <path id="Trazado_72" data-name="Trazado 72" d="M582.839,221.726v-.113c0-8.707,7.011-15.775,16.454-15.775,9.385,0,16.339,6.955,16.339,15.662v.114c0,8.707-7.01,15.774-16.453,15.774C589.794,237.388,582.839,230.434,582.839,221.726Zm24.312,0v-.113c0-4.466-3.222-8.368-7.971-8.368-4.918,0-7.86,3.788-7.86,8.254v.114c0,4.467,3.223,8.368,7.974,8.368C604.212,229.982,607.151,226.194,607.151,221.726Z" transform="translate(-521.271 -205.838)" fill="#0084cc"/>
      <path id="Trazado_73" data-name="Trazado 73" d="M532.012,241.455c0-2.487,2.091-4.013,4.8-4.013s4.807,1.527,4.807,4.013v.114c0,2.488-2.093,4.073-4.807,4.073s-4.8-1.585-4.8-4.073Zm.508,11.2a4.3,4.3,0,0,1,8.594,0v22.389a4.3,4.3,0,0,1-8.594,0Z" transform="translate(-530.654 -200.004)" fill="#f9951f"/>
      <path id="Trazado_74" data-name="Trazado 74" d="M544.61,250.987a4.3,4.3,0,0,1,8.594,0v.339c1.979-2.545,4.524-4.863,8.877-4.863,6.5,0,10.291,4.3,10.291,11.251v15.662a4.3,4.3,0,0,1-8.594,0V260.428c0-4.07-1.923-6.164-5.2-6.164s-5.371,2.093-5.371,6.164v12.948a4.3,4.3,0,0,1-8.594,0Z" transform="translate(-528.329 -198.338)" fill="#009c84"/>
      <path id="Trazado_75" data-name="Trazado 75" d="M571.193,262.351v-.113a15.56,15.56,0,0,1,15.889-15.775c4.58,0,7.8,1.244,10.346,3.393a3.811,3.811,0,0,1,1.356,2.94,3.861,3.861,0,0,1-3.9,3.845,4.045,4.045,0,0,1-2.488-.849,8.192,8.192,0,0,0-5.371-1.923c-4.3,0-7.35,3.788-7.35,8.256v.114c0,4.637,3,8.368,7.689,8.368a8.715,8.715,0,0,0,5.654-2.092,4,4,0,0,1,2.318-.792,3.646,3.646,0,0,1,2.374,6.39,14.9,14.9,0,0,1-10.742,3.9A15.474,15.474,0,0,1,571.193,262.351Z" transform="translate(-523.421 -198.338)" fill="#d9005b"/>
      <path id="Trazado_76" data-name="Trazado 76" d="M598.11,241.692a4.3,4.3,0,0,1,8.594,0V275.05a4.3,4.3,0,0,1-8.594,0Z" transform="translate(-518.452 -200.012)" fill="#0084cc"/>
      <path id="Trazado_77" data-name="Trazado 77" d="M637.85,273.341a4.3,4.3,0,0,1-8.593,0V273c-1.979,2.543-4.524,4.862-8.879,4.862-6.5,0-10.29-4.3-10.29-11.251V250.952a4.3,4.3,0,0,1,8.594,0V263.9c0,4.072,1.923,6.164,5.2,6.164s5.372-2.092,5.372-6.164V250.952a4.3,4.3,0,0,1,8.593,0Z" transform="translate(-516.241 -198.303)" fill="#83b011"/>
      <path id="Trazado_78" data-name="Trazado 78" d="M637.69,274.433a3.424,3.424,0,0,1-1.639-2.939,3.4,3.4,0,0,1,5.089-2.941,15.948,15.948,0,0,0,8.2,2.714c2.487,0,3.617-.9,3.617-2.261v-.113c0-1.867-2.939-2.489-6.275-3.505-4.241-1.244-9.046-3.223-9.046-9.1v-.114c0-6.162,4.975-9.611,11.081-9.611a21.285,21.285,0,0,1,9.386,2.318,3.5,3.5,0,0,1,2.036,3.223,3.38,3.38,0,0,1-3.45,3.392,3.139,3.139,0,0,1-1.583-.4,16.174,16.174,0,0,0-6.559-1.923c-2.092,0-3.166.905-3.166,2.092v.113c0,1.7,2.883,2.488,6.164,3.619,4.24,1.413,9.158,3.45,9.158,8.99v.114c0,6.727-5.032,9.78-11.59,9.78A21.113,21.113,0,0,1,637.69,274.433Z" transform="translate(-511.448 -198.32)" fill="#009c84"/>
      <path id="Trazado_79" data-name="Trazado 79" d="M660.057,241.455c0-2.487,2.091-4.013,4.8-4.013s4.807,1.527,4.807,4.013v.114c0,2.488-2.093,4.073-4.807,4.073s-4.8-1.585-4.8-4.073Zm.508,11.2a4.3,4.3,0,0,1,8.594,0v22.389a4.3,4.3,0,0,1-8.594,0Z" transform="translate(-507.016 -200.004)" fill="#ef7000"/>
      <path id="Trazado_80" data-name="Trazado 80" d="M671.415,264.254v-.113c0-8.708,7.011-15.775,16.453-15.775,9.387,0,16.341,6.955,16.341,15.662v.114c0,8.706-7.011,15.774-16.453,15.774C678.369,279.916,671.415,272.961,671.415,264.254Zm24.313,0v-.113c0-4.468-3.223-8.369-7.973-8.369-4.92,0-7.86,3.788-7.86,8.256v.114c0,4.466,3.223,8.368,7.972,8.368C692.787,272.51,695.728,268.72,695.728,264.254Zm-10.291-19.789a3.14,3.14,0,0,1,.566-1.527l3.11-4.863a3.689,3.689,0,0,1,3.222-1.923c2.092,0,4.806,1.3,4.806,2.6a2.791,2.791,0,0,1-1.131,2.035l-3.505,3.28a6.319,6.319,0,0,1-4.92,1.866C686.342,245.936,685.437,245.37,685.437,244.465Z" transform="translate(-504.919 -200.241)" fill="#f9951f"/>
      <path id="Trazado_81" data-name="Trazado 81" d="M702.437,250.987a4.3,4.3,0,1,1,8.592,0v.339c1.98-2.545,4.524-4.863,8.879-4.863,6.5,0,10.29,4.3,10.29,11.251v15.662a4.3,4.3,0,0,1-8.594,0V260.428c0-4.07-1.923-6.164-5.2-6.164s-5.373,2.093-5.373,6.164v12.948a4.3,4.3,0,1,1-8.592,0Z" transform="translate(-499.192 -198.338)" fill="#0084cc"/>
    </g>
    <g id="Grupo_162" data-name="Grupo 162" transform="translate(533.127 291.559)">
      <path id="Trazado_82" data-name="Trazado 82" d="M532.775,282.075a.708.708,0,0,1,.693-.71h7.694a.636.636,0,0,1,.64.64.652.652,0,0,1-.64.656h-6.983V287.1h6.184a.64.64,0,0,1,0,1.279h-6.184v4.8a.7.7,0,1,1-1.4,0Z" transform="translate(-532.775 -277.616)" fill="#515150"/>
      <path id="Trazado_83" data-name="Trazado 83" d="M551.75,288.61V282a.7.7,0,1,1,1.4,0v6.521c0,2.683,1.438,4.194,3.8,4.194,2.292,0,3.749-1.386,3.749-4.1V282a.7.7,0,1,1,1.4,0v6.5c0,3.625-2.079,5.508-5.189,5.508C553.847,294.012,551.75,292.128,551.75,288.61Z" transform="translate(-529.272 -277.63)" fill="#515150"/>
      <path id="Trazado_84" data-name="Trazado 84" d="M572.6,282.019a.7.7,0,0,1,.693-.693h.2a.858.858,0,0,1,.711.408l7.551,9.631v-9.382a.685.685,0,1,1,1.369,0v11.23a.63.63,0,0,1-.64.657h-.071a.96.96,0,0,1-.729-.426l-7.712-9.862v9.631a.684.684,0,1,1-1.368,0Z" transform="translate(-525.423 -277.63)" fill="#515150"/>
      <path id="Trazado_85" data-name="Trazado 85" d="M593.75,282.075a.708.708,0,0,1,.693-.71h3.625c3.908,0,6.61,2.682,6.61,6.182v.036c0,3.5-2.7,6.219-6.61,6.219h-3.625a.709.709,0,0,1-.693-.711Zm4.318,10.431a4.813,4.813,0,0,0,5.152-4.887v-.036a4.841,4.841,0,0,0-5.152-4.922h-2.914v9.844Z" transform="translate(-521.518 -277.616)" fill="#515150"/>
      <path id="Trazado_86" data-name="Trazado 86" d="M613.535,292.9l5.045-11.035a.917.917,0,0,1,.888-.621h.072a.894.894,0,0,1,.87.621l5.046,11.017a.949.949,0,0,1,.089.355.675.675,0,0,1-.675.675.767.767,0,0,1-.693-.515l-1.3-2.861h-6.823l-1.3,2.9a.707.707,0,0,1-.676.48.638.638,0,0,1-.64-.64A.811.811,0,0,1,613.535,292.9Zm8.795-3.643-2.861-6.361-2.861,6.361Z" transform="translate(-517.882 -277.638)" fill="#515150"/>
      <path id="Trazado_87" data-name="Trazado 87" d="M634.22,287.652v-.036a6.266,6.266,0,0,1,6.29-6.432,6.433,6.433,0,0,1,4.441,1.617.775.775,0,0,1,.286.57.723.723,0,0,1-.711.693.839.839,0,0,1-.462-.161,5.092,5.092,0,0,0-3.572-1.42,4.876,4.876,0,0,0-4.815,5.1v.036a4.908,4.908,0,0,0,4.815,5.135,5.1,5.1,0,0,0,3.7-1.51.643.643,0,0,1,.444-.2.7.7,0,0,1,.675.675.664.664,0,0,1-.231.5,6.371,6.371,0,0,1-4.62,1.83A6.2,6.2,0,0,1,634.22,287.652Z" transform="translate(-514.047 -277.649)" fill="#515150"/>
      <path id="Trazado_88" data-name="Trazado 88" d="M655.16,282a.7.7,0,1,1,1.4,0v11.195a.7.7,0,1,1-1.4,0Z" transform="translate(-510.181 -277.63)" fill="#515150"/>
      <path id="Trazado_89" data-name="Trazado 89" d="M668.255,288.2v-.036a6.344,6.344,0,1,1,12.687-.036v.036a6.344,6.344,0,1,1-12.687.036Zm11.23,0v-.036a4.944,4.944,0,0,0-4.9-5.134,4.886,4.886,0,0,0-4.869,5.1v.036a4.946,4.946,0,0,0,4.9,5.135A4.886,4.886,0,0,0,679.485,288.2Zm-5.277-7.712a.473.473,0,0,1,.09-.265l1.065-1.618a.754.754,0,0,1,.64-.407c.427,0,.961.284.961.533,0,.142-.108.265-.25.409l-1.331,1.26a1.009,1.009,0,0,1-.836.338C674.35,280.74,674.208,280.633,674.208,280.491Z" transform="translate(-507.764 -278.2)" fill="#515150"/>
      <path id="Trazado_90" data-name="Trazado 90" d="M690.771,282.019a.7.7,0,0,1,.693-.693h.2a.857.857,0,0,1,.71.408l7.552,9.631v-9.382a.684.684,0,1,1,1.367,0v11.23a.63.63,0,0,1-.64.657h-.07a.962.962,0,0,1-.729-.426l-7.712-9.862v9.631a.684.684,0,1,1-1.367,0Z" transform="translate(-503.607 -277.63)" fill="#515150"/>
    </g>
    <g id="Grupo_163" data-name="Grupo 163" transform="translate(737.249 295.655)">
      <ellipse id="Elipse_77" data-name="Elipse 77" cx="6.305" cy="6.502" rx="6.305" ry="6.502" transform="translate(11.244)" fill="#83b011"/>
      <path id="Trazado_91" data-name="Trazado 91" d="M713.311,288.16a6.566,6.566,0,0,1,2.193-4.922,6.16,6.16,0,0,0-4.112-1.58,6.505,6.505,0,0,0,0,13,6.166,6.166,0,0,0,4.112-1.58A6.566,6.566,0,0,1,713.311,288.16Z" transform="translate(-705.086 -281.658)" fill="#f9951f"/>
    </g>
  </g>
</svg>
