<svg id="Grupo_125" data-name="Grupo 125" xmlns="http://www.w3.org/2000/svg" width="119.238" height="53.073" viewBox="0 0 119.238 53.073">
  <g id="Grupo_122" data-name="Grupo 122">
    <path id="Trazado_48" data-name="Trazado 48" d="M950.018,222.123a7.823,7.823,0,0,1-8.172-8.084v-.058c0-4.465,3.181-8.143,7.734-8.143a7.4,7.4,0,0,1,7.53,7.53,2.025,2.025,0,0,1-2.073,2.13h-8.784a3.628,3.628,0,0,0,3.823,3.065,5.119,5.119,0,0,0,3.151-1.051,1.659,1.659,0,0,1,1.08-.35,1.7,1.7,0,0,1,1.721,1.751,1.745,1.745,0,0,1-.583,1.314A8.108,8.108,0,0,1,950.018,222.123Zm2.86-9.4c-.263-1.984-1.43-3.326-3.3-3.326-1.839,0-3.035,1.313-3.386,3.326Z" transform="translate(-941.846 -205.838)" fill="#fff"/>
    <path id="Trazado_49" data-name="Trazado 49" d="M969.191,214.039v-.058a8.032,8.032,0,0,1,8.2-8.143,7.831,7.831,0,0,1,5.34,1.751,1.968,1.968,0,0,1,.7,1.518,1.993,1.993,0,0,1-2.014,1.985,2.086,2.086,0,0,1-1.283-.438,4.23,4.23,0,0,0-2.773-.992,4,4,0,0,0-3.794,4.261v.059a4.008,4.008,0,0,0,3.969,4.319,4.5,4.5,0,0,0,2.918-1.079,2.059,2.059,0,0,1,1.2-.408,1.881,1.881,0,0,1,1.226,3.3,7.694,7.694,0,0,1-5.545,2.014A7.988,7.988,0,0,1,969.191,214.039Z" transform="translate(-952.471 -205.838)" fill="#fff"/>
    <path id="Trazado_50" data-name="Trazado 50" d="M993.818,214.039v-.058a8.471,8.471,0,0,1,16.927-.059v.059a8.471,8.471,0,0,1-16.927.058Zm12.55,0v-.058a4.157,4.157,0,0,0-4.115-4.319,4.008,4.008,0,0,0-4.056,4.261v.059a4.156,4.156,0,0,0,4.115,4.319A4.007,4.007,0,0,0,1006.368,214.039Z" transform="translate(-962.039 -205.838)" fill="#fff"/>
    <path id="Trazado_51" data-name="Trazado 51" d="M942.991,239.514a2.521,2.521,0,0,1,4.961,0v.059a2.515,2.515,0,0,1-4.961,0Zm.263,5.78a2.218,2.218,0,0,1,4.436,0V256.85a2.218,2.218,0,0,1-4.436,0Z" transform="translate(-942.291 -218.117)" fill="#fff"/>
    <path id="Trazado_52" data-name="Trazado 52" d="M955.59,248.8a2.218,2.218,0,0,1,4.436,0v.175a5.534,5.534,0,0,1,4.582-2.51c3.356,0,5.311,2.218,5.311,5.808v8.084a2.218,2.218,0,0,1-4.436,0v-6.683c0-2.1-.993-3.181-2.685-3.181s-2.772,1.08-2.772,3.181v6.683a2.218,2.218,0,0,1-4.436,0Z" transform="translate(-947.186 -221.622)" fill="#fff"/>
    <path id="Trazado_53" data-name="Trazado 53" d="M982.173,254.664v-.058a8.031,8.031,0,0,1,8.2-8.143,7.827,7.827,0,0,1,5.34,1.751,1.965,1.965,0,0,1,.7,1.518,1.994,1.994,0,0,1-2.013,1.985,2.09,2.09,0,0,1-1.285-.438,4.229,4.229,0,0,0-2.772-.992,4,4,0,0,0-3.794,4.261v.059a4.008,4.008,0,0,0,3.969,4.319,4.5,4.5,0,0,0,2.919-1.08,2.062,2.062,0,0,1,1.2-.409,1.882,1.882,0,0,1,1.225,3.3,7.7,7.7,0,0,1-5.545,2.014A7.987,7.987,0,0,1,982.173,254.664Z" transform="translate(-957.515 -221.622)" fill="#fff"/>
    <path id="Trazado_54" data-name="Trazado 54" d="M1009.09,239.613a2.218,2.218,0,0,1,4.436,0v17.219a2.218,2.218,0,0,1-4.436,0Z" transform="translate(-967.973 -218.099)" fill="#fff"/>
    <path id="Trazado_55" data-name="Trazado 55" d="M1035.4,260.429a2.218,2.218,0,0,1-4.436,0v-.175a5.535,5.535,0,0,1-4.582,2.509c-3.356,0-5.312-2.218-5.312-5.808v-8.084a2.218,2.218,0,0,1,4.436,0v6.683c0,2.1.993,3.181,2.686,3.181s2.772-1.08,2.772-3.181v-6.683a2.218,2.218,0,0,1,4.436,0Z" transform="translate(-972.627 -221.697)" fill="#fff"/>
    <path id="Trazado_56" data-name="Trazado 56" d="M1047.876,260.947a1.767,1.767,0,0,1-.846-1.517,1.753,1.753,0,0,1,2.627-1.518,8.233,8.233,0,0,0,4.232,1.4c1.284,0,1.868-.467,1.868-1.167v-.058c0-.964-1.518-1.285-3.239-1.809-2.189-.642-4.67-1.664-4.67-4.7v-.059c0-3.181,2.568-4.961,5.72-4.961a10.989,10.989,0,0,1,4.845,1.2,1.807,1.807,0,0,1,1.05,1.664,1.744,1.744,0,0,1-1.781,1.751,1.623,1.623,0,0,1-.817-.2,8.346,8.346,0,0,0-3.386-.992c-1.079,0-1.634.467-1.634,1.08v.058c0,.876,1.489,1.284,3.182,1.868,2.189.729,4.728,1.781,4.728,4.64v.059c0,3.473-2.6,5.048-5.982,5.048A10.9,10.9,0,0,1,1047.876,260.947Z" transform="translate(-982.714 -221.66)" fill="#fff"/>
    <path id="Trazado_57" data-name="Trazado 57" d="M1071.036,239.514a2.521,2.521,0,0,1,4.961,0v.059a2.515,2.515,0,0,1-4.961,0Zm.263,5.78a2.218,2.218,0,0,1,4.436,0V256.85a2.218,2.218,0,0,1-4.436,0Z" transform="translate(-992.042 -218.117)" fill="#fff"/>
    <path id="Trazado_58" data-name="Trazado 58" d="M1082.4,250.658V250.6a8.471,8.471,0,0,1,16.926-.059v.059a8.471,8.471,0,0,1-16.926.058Zm12.549,0V250.6a4.156,4.156,0,0,0-4.115-4.32,4.008,4.008,0,0,0-4.057,4.261v.059a4.156,4.156,0,0,0,4.115,4.319A4.008,4.008,0,0,0,1094.944,250.658Zm-5.312-10.214a1.626,1.626,0,0,1,.292-.788l1.6-2.51a1.9,1.9,0,0,1,1.664-.992c1.079,0,2.48.671,2.48,1.343a1.439,1.439,0,0,1-.584,1.05l-1.809,1.693a3.261,3.261,0,0,1-2.539.963C1090.1,241.2,1089.632,240.911,1089.632,240.444Z" transform="translate(-996.455 -217.617)" fill="#fff"/>
    <path id="Trazado_59" data-name="Trazado 59" d="M1113.416,248.8a2.218,2.218,0,0,1,4.436,0v.175a5.534,5.534,0,0,1,4.582-2.51c3.356,0,5.312,2.218,5.312,5.808v8.084a2.218,2.218,0,0,1-4.436,0v-6.683c0-2.1-.992-3.181-2.685-3.181s-2.773,1.08-2.773,3.181v6.683a2.218,2.218,0,0,1-4.436,0Z" transform="translate(-1008.508 -221.622)" fill="#fff"/>
  </g>
  <g id="Grupo_123" data-name="Grupo 123" transform="translate(1.167 44.246)">
    <path id="Trazado_60" data-name="Trazado 60" d="M943.755,281.731a.365.365,0,0,1,.358-.366h3.971a.328.328,0,0,1,.33.33.336.336,0,0,1-.33.339h-3.6v2.293h3.192a.33.33,0,1,1,0,.66h-3.192v2.476a.362.362,0,1,1-.724,0Z" transform="translate(-943.755 -279.43)" fill="#fff"/>
    <path id="Trazado_61" data-name="Trazado 61" d="M962.73,285.068v-3.412a.362.362,0,1,1,.724,0v3.366a1.893,1.893,0,0,0,1.963,2.165c1.184,0,1.935-.715,1.935-2.119v-3.412a.362.362,0,1,1,.725,0v3.357a2.677,2.677,0,1,1-5.347.055Z" transform="translate(-951.128 -279.4)" fill="#fff"/>
    <path id="Trazado_62" data-name="Trazado 62" d="M983.579,281.666a.364.364,0,0,1,.358-.358h.1a.443.443,0,0,1,.367.21l3.9,4.971v-4.843a.353.353,0,1,1,.706,0v5.8a.325.325,0,0,1-.33.339h-.037a.5.5,0,0,1-.376-.22l-3.981-5.09v4.971a.353.353,0,1,1-.706,0Z" transform="translate(-959.228 -279.4)" fill="#fff"/>
    <path id="Trazado_63" data-name="Trazado 63" d="M1004.73,281.731a.365.365,0,0,1,.357-.366h1.871a3.2,3.2,0,0,1,3.412,3.191v.018a3.214,3.214,0,0,1-3.412,3.21h-1.871a.366.366,0,0,1-.357-.367Zm2.228,5.384a2.485,2.485,0,0,0,2.66-2.522v-.018a2.5,2.5,0,0,0-2.66-2.541h-1.5v5.081Z" transform="translate(-967.446 -279.43)" fill="#fff"/>
    <path id="Trazado_64" data-name="Trazado 64" d="M1024.471,287.261l2.6-5.7a.473.473,0,0,1,.459-.32h.036a.462.462,0,0,1,.45.32l2.6,5.687a.49.49,0,0,1,.047.183.349.349,0,0,1-.349.349.4.4,0,0,1-.358-.266l-.669-1.477h-3.522l-.669,1.495a.364.364,0,0,1-.349.248.329.329,0,0,1-.33-.33A.415.415,0,0,1,1024.471,287.261Zm4.54-1.88-1.477-3.284-1.477,3.284Z" transform="translate(-975.099 -279.383)" fill="#fff"/>
    <path id="Trazado_65" data-name="Trazado 65" d="M1045.2,284.523V284.5a3.235,3.235,0,0,1,3.248-3.32,3.323,3.323,0,0,1,2.292.835.4.4,0,0,1,.147.294.373.373,0,0,1-.367.358.432.432,0,0,1-.238-.083,2.63,2.63,0,0,0-1.844-.733,2.517,2.517,0,0,0-2.485,2.632v.018a2.533,2.533,0,0,0,2.485,2.651,2.629,2.629,0,0,0,1.908-.78.333.333,0,0,1,.229-.1.361.361,0,0,1,.349.349.341.341,0,0,1-.12.257,3.288,3.288,0,0,1-2.384.945A3.2,3.2,0,0,1,1045.2,284.523Z" transform="translate(-983.17 -279.359)" fill="#fff"/>
    <path id="Trazado_66" data-name="Trazado 66" d="M1066.14,281.656a.362.362,0,1,1,.724,0v5.778a.362.362,0,1,1-.724,0Z" transform="translate(-991.307 -279.4)" fill="#fff"/>
    <path id="Trazado_67" data-name="Trazado 67" d="M1079.234,283.363v-.018a3.275,3.275,0,1,1,6.549-.018v.018a3.275,3.275,0,1,1-6.549.018Zm5.8,0v-.018a2.552,2.552,0,0,0-2.532-2.65,2.522,2.522,0,0,0-2.512,2.632v.018a2.553,2.553,0,0,0,2.531,2.651A2.522,2.522,0,0,0,1085.031,283.363Zm-2.724-3.981a.244.244,0,0,1,.046-.137l.55-.835a.391.391,0,0,1,.33-.21c.221,0,.5.147.5.275,0,.073-.056.137-.129.211l-.687.651a.519.519,0,0,1-.431.174C1082.38,279.511,1082.307,279.456,1082.307,279.383Z" transform="translate(-996.394 -278.2)" fill="#fff"/>
    <path id="Trazado_68" data-name="Trazado 68" d="M1101.75,281.666a.364.364,0,0,1,.358-.358h.1a.442.442,0,0,1,.367.21l3.9,4.971v-4.843a.353.353,0,1,1,.706,0v5.8a.325.325,0,0,1-.33.339h-.037a.5.5,0,0,1-.376-.22l-3.98-5.09v4.971a.353.353,0,1,1-.706,0Z" transform="translate(-1005.143 -279.4)" fill="#fff"/>
  </g>
  <g id="Grupo_124" data-name="Grupo 124" transform="translate(106.528 46.361)">
    <ellipse id="Elipse_69" data-name="Elipse 69" cx="3.255" cy="3.356" rx="3.255" ry="3.356" transform="translate(5.804)" fill="#fff"/>
    <path id="Trazado_69" data-name="Trazado 69" d="M1120.31,285.014a3.389,3.389,0,0,1,1.132-2.541,3.181,3.181,0,0,0-2.123-.816,3.358,3.358,0,0,0,0,6.713,3.184,3.184,0,0,0,2.123-.816A3.389,3.389,0,0,1,1120.31,285.014Z" transform="translate(-1116.065 -281.658)" fill="#fff"/>
  </g>
</svg>
