<svg xmlns="http://www.w3.org/2000/svg" width="40.018" height="47.372" viewBox="0 0 40.018 47.372"><path d="M44.124,47.668h-.586c-.747,0-1.38-.1-1.46-.851v-.011C40.4,31.18,30.556,30.881,30.556,27.2S40.41,23.223,42.078,7.6V7.586c.08-.747.713-.851,1.46-.851h.586A1.649,1.649,0,0,0,45.78,5.206a1.612,1.612,0,0,0-1.61-1.69H7.422A1.649,1.649,0,0,0,5.766,5.045a1.612,1.612,0,0,0,1.61,1.69h.632c.747,0,1.38.1,1.46.851V7.6C11.148,23.223,20.99,23.522,20.99,27.2s-9.854,3.978-11.521,19.6v.011c-.08.747-.713.851-1.46.851H7.422A1.649,1.649,0,0,0,5.766,49.2a1.612,1.612,0,0,0,1.61,1.69H44.17a1.605,1.605,0,0,0,1.61-1.69A1.649,1.649,0,0,0,44.124,47.668Zm-29.01-3.932c3.3-9.176,9.153-8.06,9.153-11.682V25.661c0-2.231-4.231-3.783-6.876-7.4a.9.9,0,0,1,.747-1.426H33.419a.9.9,0,0,1,.77,1.4c-2.6,3.633-6.91,5.2-6.91,7.428v6.393c0,3.587,5.623,2.61,9.176,11.682.322.816.08,1.84-.793,1.84H15.908C15.022,45.576,14.815,44.564,15.114,43.736Z" transform="translate(-5.764 -3.516)" fill="#fff"/></svg>