<svg id="professions-and-jobs" xmlns="http://www.w3.org/2000/svg" width="29.426" height="32.752" viewBox="0 0 29.426 32.752">
  <g id="Grupo_104" data-name="Grupo 104" transform="translate(21.11 25.332)">
    <g id="Grupo_103" data-name="Grupo 103">
      <path id="Trazado_36" data-name="Trazado 36" d="M356.64,396a.64.64,0,1,0,.64.64A.64.64,0,0,0,356.64,396Z" transform="translate(-356 -396)" fill="#fff"/>
    </g>
  </g>
  <g id="Grupo_106" data-name="Grupo 106" transform="translate(0)">
    <g id="Grupo_105" data-name="Grupo 105" transform="translate(0)">
      <path id="Trazado_37" data-name="Trazado 37" d="M49.325,23.263l-3.04-1.013-1.092-2.183a7.006,7.006,0,0,0,1.9-3.706l.136-.816h1.164a1.921,1.921,0,0,0,1.919-1.919V9.6a9.6,9.6,0,0,0-19.191,0v4.03A1.922,1.922,0,0,0,32.4,15.435v.75A1.921,1.921,0,0,0,34.316,18.1h.562a6.94,6.94,0,0,0,1.073,1.662c.091.1.185.205.282.3L35.142,22.25,32.1,23.263A9.429,9.429,0,0,0,26,32.113a.64.64,0,0,0,.64.64H54.786a.64.64,0,0,0,.64-.64A9.429,9.429,0,0,0,49.325,23.263Zm-.3-9.638a.64.64,0,0,1-.64.64h-.976c.163-1.26.271-2.6.315-3.92,0-.037,0-.073,0-.11h1.3Zm-15.992.64a.64.64,0,0,1-.64-.64v-3.39h1.3q0,.1.007.2v.007h0c.045,1.284.152,2.59.311,3.821h-.976Zm1.279,2.559a.64.64,0,0,1-.64-.64v-.64H34.2l.136.816c.026.155.058.31.095.463Zm-.639-7.868H32.421A8.316,8.316,0,0,1,49,8.956H47.749a6.479,6.479,0,0,0-6.463-6.4H40.141A6.479,6.479,0,0,0,33.677,8.956ZM40.14,3.838h1.145A5.2,5.2,0,0,1,46.47,9.046c0,.2,0,.377,0,.536,0,0,0,0,0,.006l-.8-.114a10.279,10.279,0,0,1-5.779-2.89.64.64,0,0,0-.452-.187A5.787,5.787,0,0,0,34.984,8.5,5.2,5.2,0,0,1,40.14,3.838ZM35.758,16.824a36.564,36.564,0,0,1-.768-6.208l.861-1.148a4.5,4.5,0,0,1,3.33-1.784,11.571,11.571,0,0,0,6.3,3.057l.942.135c-.063,1.336-.192,2.677-.376,3.91h0c-.059.4-.1.652-.223,1.364a5.434,5.434,0,0,1-3.857,4.37A5.033,5.033,0,0,1,36.32,18.1h1.3a1.922,1.922,0,0,0,1.809,1.279h1.279a1.919,1.919,0,0,0,0-3.838H39.434a1.92,1.92,0,0,0-1.81,1.279Zm3.622,4.991a6.416,6.416,0,0,0,2.379.054l-1.13,1.2Zm.369,2.179L37.72,26.139a24.373,24.373,0,0,1-1.432-3.321l.762-1.524Zm4.518-2.916.87,1.741a24.367,24.367,0,0,1-1.432,3.322l-2.172-2.172Zm-5.474-3.614a.64.64,0,0,1,.64-.64h1.279a.64.64,0,0,1,0,1.279H39.434A.64.64,0,0,1,38.794,17.464ZM27.3,31.473a8.084,8.084,0,0,1,5.2-7l2.693-.9a25.643,25.643,0,0,0,1.821,3.949l0,.006h0a25.65,25.65,0,0,0,1.751,2.674l.787,1.263Zm13.408-.57-.868-1.393q-.015-.023-.031-.045a24.392,24.392,0,0,1-1.441-2.153L40.654,24.9l2.4,2.4a24.364,24.364,0,0,1-1.446,2.162C41.58,29.506,41.625,29.44,40.713,30.9Zm1.152.57.787-1.263a25.641,25.641,0,0,0,1.763-2.7l.009-.017v0a25.622,25.622,0,0,0,1.8-3.916l2.693.9a8.084,8.084,0,0,1,5.2,7Z" transform="translate(-26)" fill="#fff"/>
    </g>
  </g>
  <g id="Grupo_108" data-name="Grupo 108" transform="translate(23.358 26.553)">
    <g id="Grupo_107" data-name="Grupo 107">
      <path id="Trazado_38" data-name="Trazado 38" d="M393.98,417.42a6.4,6.4,0,0,0-1.811-2.2.64.64,0,1,0-.78,1.014,5.108,5.108,0,0,1,1.446,1.756.64.64,0,0,0,1.145-.572Z" transform="translate(-391.139 -415.089)" fill="#fff"/>
    </g>
  </g>
</svg>
