<svg xmlns="http://www.w3.org/2000/svg" width="15.373" height="13.792" viewBox="0 0 15.373 13.792"><g transform="translate(0 -26.315)"><g transform="translate(0 26.315)"><g transform="translate(0)"><path d="M15.127,37.4,9.252,27.219a1.808,1.808,0,0,0-3.131,0L.245,37.4A1.808,1.808,0,0,0,1.81,40.107H13.562A1.808,1.808,0,0,0,15.127,37.4Zm-.78,1.357a.9.9,0,0,1-.786.453H1.81a.907.907,0,0,1-.786-1.36L6.9,27.669a.907.907,0,0,1,1.571,0l5.876,10.177A.9.9,0,0,1,14.347,38.753Z" transform="translate(0 -26.315)" fill="#00b49d"/></g></g><g transform="translate(7.236 30.81)"><g transform="translate(0 0)"><rect width="0.901" height="4.503" fill="#00b49d"/></g></g><g transform="translate(7.086 36.213)"><path d="M236.6,355.99a.6.6,0,1,0,.6.6A.6.6,0,0,0,236.6,355.99Z" transform="translate(-236.002 -355.99)" fill="#00b49d"/></g></g></svg>